<svg width="261" height="128" viewBox="0 0 261 128" fill="none" xmlns="http://www.w3.org/2000/svg">
<path d="M28.4714 44.1662C27.7914 42.5062 27.1114 40.8562 26.4314 39.2162C25.7714 37.5762 25.1014 35.9362 24.4214 34.2962C24.2614 33.9162 24.0514 33.3862 23.7914 32.7062C23.5514 32.0062 23.2914 31.2062 23.0114 30.3062C22.7514 29.4062 22.5114 28.4762 22.2914 27.5162C22.3314 28.6362 22.3614 29.6962 22.3814 30.6962C22.4014 31.6762 22.4014 32.6162 22.3814 33.5162C22.3814 33.9562 22.3814 34.4062 22.3814 34.8662C22.3814 35.3262 22.3714 35.7862 22.3514 36.2462C22.3514 36.6862 22.3514 37.1362 22.3514 37.5962C22.3514 38.0362 22.3514 38.4862 22.3514 38.9462C22.3514 39.4862 22.3314 40.0062 22.2914 40.5062C22.2714 41.0062 22.2414 41.3862 22.2014 41.6462C22.5414 41.6062 22.9514 41.5862 23.4314 41.5862C23.9314 41.5662 24.2814 41.5562 24.4814 41.5562V43.8662H17.6414V41.8862C18.1014 41.8662 18.4814 41.8062 18.7814 41.7062C19.1014 41.6062 19.3414 41.3762 19.5014 41.0162C19.6814 40.6562 19.7714 40.0762 19.7714 39.2762L19.9514 27.7862C19.9714 27.2462 19.9914 26.7262 20.0114 26.2262C20.0314 25.7262 20.0514 25.3462 20.0714 25.0862C19.7514 25.1062 19.3514 25.1262 18.8714 25.1462C18.3914 25.1462 18.0414 25.1562 17.8214 25.1762V22.8662H24.4514L28.9814 34.4762C29.1614 34.9362 29.3614 35.4762 29.5814 36.0962C29.8014 36.6962 30.0114 37.2862 30.2114 37.8662C30.4114 38.4262 30.5614 38.8762 30.6614 39.2162H30.6914C30.9514 38.5162 31.1914 37.8362 31.4114 37.1762C31.6314 36.5162 31.8614 35.8762 32.1014 35.2562C32.8814 33.1762 33.6514 31.1062 34.4114 29.0462C35.1914 26.9862 35.9714 24.9262 36.7514 22.8662H43.6814V24.8462C43.2414 24.8662 42.8514 24.9262 42.5114 25.0262C42.1714 25.1262 41.9114 25.3562 41.7314 25.7162C41.5714 26.0562 41.5014 26.6362 41.5214 27.4562L41.9714 38.9462C42.0114 39.4862 42.0114 40.0062 41.9714 40.5062C41.9314 41.0062 41.8914 41.3862 41.8514 41.6462C42.1914 41.6062 42.6014 41.5862 43.0814 41.5862C43.5814 41.5662 43.9314 41.5562 44.1314 41.5562V43.8662H35.7914V41.8862C36.2514 41.8662 36.6414 41.8062 36.9614 41.7062C37.3014 41.6062 37.5514 41.3762 37.7114 41.0162C37.8914 40.6562 37.9614 40.0762 37.9214 39.2762L37.6814 32.9162C37.6814 32.6762 37.6614 32.2662 37.6214 31.6862C37.5814 31.0862 37.5414 30.4362 37.5014 29.7362C37.4814 29.0162 37.4614 28.3462 37.4414 27.7262C37.3814 27.8662 37.3214 28.0062 37.2614 28.1462C37.2014 28.2662 37.1514 28.3962 37.1114 28.5362L31.2614 44.1662H28.4714ZM53.2587 44.3462C51.8187 44.3462 50.5187 44.0362 49.3587 43.4162C48.1987 42.7962 47.2787 41.9162 46.5987 40.7762C45.9387 39.6162 45.6087 38.2562 45.6087 36.6962C45.6087 35.0362 45.9487 33.5862 46.6287 32.3462C47.3287 31.0862 48.2487 30.1162 49.3887 29.4362C50.5487 28.7362 51.8087 28.3862 53.1687 28.3862C54.6087 28.3862 55.8987 28.6962 57.0387 29.3162C58.1787 29.9362 59.0787 30.8262 59.7387 31.9862C60.3987 33.1262 60.7287 34.4962 60.7287 36.0962C60.7287 37.7762 60.4087 39.2362 59.7687 40.4762C59.1287 41.7162 58.2487 42.6762 57.1287 43.3562C56.0087 44.0162 54.7187 44.3462 53.2587 44.3462ZM53.3787 42.2162C54.1787 42.1962 54.7787 41.9162 55.1787 41.3762C55.5987 40.8362 55.8887 40.1562 56.0487 39.3362C56.2087 38.5162 56.2887 37.6862 56.2887 36.8462C56.2887 36.1062 56.2287 35.3562 56.1087 34.5962C56.0087 33.8362 55.8387 33.1462 55.5987 32.5262C55.3587 31.9062 55.0287 31.4062 54.6087 31.0262C54.2087 30.6462 53.7087 30.4662 53.1087 30.4862C52.3287 30.5062 51.7087 30.7862 51.2487 31.3262C50.8087 31.8662 50.4887 32.5462 50.2887 33.3662C50.1087 34.1662 50.0187 35.0062 50.0187 35.8862C50.0187 36.9062 50.1287 37.9062 50.3487 38.8862C50.5687 39.8662 50.9187 40.6762 51.3987 41.3162C51.8987 41.9362 52.5587 42.2362 53.3787 42.2162ZM62.9009 43.8662V41.9162C63.4609 41.9162 63.8609 41.8062 64.1009 41.5862C64.3409 41.3662 64.4909 41.0562 64.5509 40.6562C64.6309 40.2362 64.6709 39.7662 64.6709 39.2462V34.2062C64.6709 33.8462 64.6809 33.4462 64.7009 33.0062C64.7209 32.5462 64.7509 32.0962 64.7909 31.6562C64.4709 31.6762 64.0909 31.6962 63.6509 31.7162C63.2309 31.7162 62.9109 31.7262 62.6909 31.7462V29.4662C63.6109 29.4662 64.3909 29.4162 65.0309 29.3162C65.6709 29.2162 66.1709 29.0962 66.5309 28.9562C66.9109 28.8162 67.1709 28.6862 67.3109 28.5662H68.7809C68.8209 28.8262 68.8409 29.0162 68.8409 29.1362C68.8409 29.2562 68.8409 29.3762 68.8409 29.4962C68.8609 29.5962 68.9009 29.7862 68.9609 30.0662C69.3609 29.7462 69.8209 29.4662 70.3409 29.2262C70.8609 28.9662 71.3809 28.7662 71.9009 28.6262C72.4209 28.4662 72.8809 28.3862 73.2809 28.3862C75.1209 28.3862 76.4209 28.9162 77.1809 29.9762C77.9609 31.0162 78.3509 32.6962 78.3509 35.0162V39.0362C78.3509 39.3162 78.3409 39.7162 78.3209 40.2362C78.3009 40.7362 78.2709 41.2162 78.2309 41.6762C78.5709 41.6362 78.9309 41.6162 79.3109 41.6162C79.6909 41.5962 79.9809 41.5862 80.1809 41.5862V43.8662H72.3209V41.9162C72.8809 41.9162 73.2809 41.8062 73.5209 41.5862C73.7809 41.3662 73.9409 41.0562 74.0009 40.6562C74.0809 40.2362 74.1209 39.7662 74.1209 39.2462L74.0909 34.9862C74.0909 33.6862 73.9009 32.7262 73.5209 32.1062C73.1609 31.4662 72.5409 31.1462 71.6609 31.1462C71.1609 31.1462 70.6609 31.2562 70.1609 31.4762C69.6809 31.6962 69.2709 31.9562 68.9309 32.2562C68.9309 32.5362 68.9309 32.8262 68.9309 33.1262C68.9309 33.4062 68.9309 33.6862 68.9309 33.9662V39.0362C68.9309 39.3162 68.9209 39.7162 68.9009 40.2362C68.8809 40.7362 68.8509 41.2162 68.8109 41.6762C69.1309 41.6362 69.4809 41.6162 69.8609 41.6162C70.2609 41.5962 70.5609 41.5862 70.7609 41.5862V43.8662H62.9009ZM87.7632 44.3462C86.5632 44.3462 85.5032 44.0362 84.5832 43.4162C83.6832 42.7962 82.9732 41.9162 82.4532 40.7762C81.9532 39.6362 81.7032 38.2962 81.7032 36.7562C81.7032 35.1362 82.0132 33.6962 82.6332 32.4362C83.2532 31.1762 84.1232 30.1862 85.2432 29.4662C86.3632 28.7462 87.6632 28.3862 89.1432 28.3862C89.6832 28.3862 90.1632 28.4462 90.5832 28.5662C91.0232 28.6662 91.4332 28.7862 91.8132 28.9262V26.9462C91.8132 26.6662 91.8232 26.2662 91.8432 25.7462C91.8632 25.2262 91.8932 24.7462 91.9332 24.3062C91.6132 24.3262 91.2332 24.3462 90.7932 24.3662C90.3532 24.3862 90.0232 24.3962 89.8032 24.3962V22.1162C90.7432 22.1162 91.5232 22.0662 92.1432 21.9662C92.7832 21.8662 93.2832 21.7462 93.6432 21.6062C94.0232 21.4662 94.2832 21.3362 94.4232 21.2162H96.0432V39.0362C96.0432 39.3162 96.0332 39.7162 96.0132 40.2362C95.9932 40.7362 95.9632 41.2162 95.9232 41.6762C96.2632 41.6362 96.6232 41.6162 97.0032 41.6162C97.3832 41.5962 97.6732 41.5862 97.8732 41.5862V43.8662H92.1732C92.1532 43.6462 92.1232 43.4162 92.0832 43.1762C92.0632 42.9362 92.0332 42.7062 91.9932 42.4862C91.3332 43.1662 90.6532 43.6462 89.9532 43.9262C89.2532 44.2062 88.5232 44.3462 87.7632 44.3462ZM89.3232 41.6162C89.8432 41.6162 90.3232 41.4862 90.7632 41.2262C91.2032 40.9462 91.5532 40.5962 91.8132 40.1762C91.8132 39.8762 91.8132 39.5762 91.8132 39.2762C91.8132 38.9762 91.8132 38.6762 91.8132 38.3762V31.1762C91.6132 31.0162 91.3132 30.8862 90.9132 30.7862C90.5132 30.6662 90.1032 30.6062 89.6832 30.6062C88.7632 30.6262 88.0432 30.9162 87.5232 31.4762C87.0032 32.0362 86.6332 32.7462 86.4132 33.6062C86.2132 34.4662 86.1132 35.3662 86.1132 36.3062C86.1132 37.1462 86.2132 37.9762 86.4132 38.7962C86.6332 39.6162 86.9732 40.2962 87.4332 40.8362C87.9132 41.3562 88.5432 41.6162 89.3232 41.6162ZM108.184 43.8662C108.144 43.5862 108.114 43.3562 108.094 43.1762C108.094 42.9762 108.084 42.7462 108.064 42.4862C107.384 43.1662 106.664 43.6462 105.904 43.9262C105.144 44.2062 104.374 44.3462 103.594 44.3462C102.314 44.3462 101.314 43.9662 100.594 43.2062C99.8743 42.4462 99.5143 41.4962 99.5143 40.3562C99.5143 39.3962 99.7543 38.5762 100.234 37.8962C100.734 37.2162 101.384 36.6662 102.184 36.2462C103.004 35.8062 103.904 35.4762 104.884 35.2562C105.884 35.0162 106.884 34.8762 107.884 34.8362V33.2762C107.884 32.7562 107.814 32.2862 107.674 31.8662C107.554 31.4462 107.334 31.1162 107.014 30.8762C106.714 30.6362 106.284 30.5262 105.724 30.5462C105.344 30.5662 104.974 30.6462 104.614 30.7862C104.254 30.9262 103.944 31.1262 103.684 31.3862C103.844 31.5662 103.944 31.7662 103.984 31.9862C104.024 32.1862 104.044 32.3662 104.044 32.5262C104.044 32.9262 103.884 33.3462 103.564 33.7862C103.244 34.2062 102.734 34.4062 102.034 34.3862C101.434 34.3662 100.974 34.1562 100.654 33.7562C100.334 33.3562 100.174 32.8862 100.174 32.3462C100.174 31.5462 100.454 30.8562 101.014 30.2762C101.594 29.6762 102.364 29.2162 103.324 28.8962C104.284 28.5562 105.344 28.3862 106.504 28.3862C108.264 28.3862 109.624 28.8462 110.584 29.7662C111.564 30.6662 112.054 32.1162 112.054 34.1162C112.054 34.7962 112.054 35.3762 112.054 35.8562C112.054 36.3362 112.044 36.8162 112.024 37.2962C112.024 37.7762 112.024 38.3562 112.024 39.0362C112.024 39.3162 112.014 39.7162 111.994 40.2362C111.974 40.7362 111.944 41.2162 111.904 41.6762C112.244 41.6362 112.604 41.6162 112.984 41.6162C113.364 41.5962 113.654 41.5862 113.854 41.5862V43.8662H108.184ZM107.854 36.9662C107.294 37.0262 106.764 37.1262 106.264 37.2662C105.764 37.4062 105.324 37.5962 104.944 37.8362C104.584 38.0762 104.294 38.3662 104.074 38.7062C103.874 39.0462 103.774 39.4262 103.774 39.8462C103.794 40.4062 103.974 40.8062 104.314 41.0462C104.654 41.2862 105.044 41.4062 105.484 41.4062C105.944 41.4062 106.374 41.3062 106.774 41.1062C107.174 40.9062 107.534 40.6462 107.854 40.3262C107.854 40.1262 107.854 39.9362 107.854 39.7562C107.854 39.5562 107.854 39.3562 107.854 39.1562C107.854 38.7962 107.854 38.4362 107.854 38.0762C107.854 37.6962 107.854 37.3262 107.854 36.9662ZM118.406 51.9962C117.646 51.9962 116.996 51.7662 116.456 51.3062C115.936 50.8662 115.676 50.2762 115.676 49.5362C115.676 48.9962 115.846 48.5162 116.186 48.0962C116.546 47.6962 117.006 47.4862 117.566 47.4662C118.006 47.4462 118.376 47.5862 118.676 47.8862C118.996 48.2062 119.156 48.6362 119.156 49.1762C119.156 49.2362 119.156 49.2962 119.156 49.3562C119.156 49.4162 119.146 49.4862 119.126 49.5662C119.166 49.5662 119.216 49.5562 119.276 49.5362C119.456 49.4762 119.646 49.3062 119.846 49.0262C120.066 48.7662 120.276 48.4162 120.476 47.9762C120.696 47.5162 120.906 46.9962 121.106 46.4162C121.326 45.8562 121.516 45.2662 121.676 44.6462L116.936 35.1362C116.376 34.0162 116.006 33.1762 115.826 32.6162C115.666 32.0362 115.556 31.5262 115.496 31.0862L114.116 31.1462V28.8662H121.586V30.7862C120.846 30.8662 120.436 31.1462 120.356 31.6262C120.296 32.1062 120.386 32.6062 120.626 33.1262L123.566 39.8462C123.766 39.3262 124.026 38.5262 124.346 37.4462C124.666 36.3462 125.046 35.1562 125.486 33.8762C125.566 33.6162 125.666 33.3162 125.786 32.9762C125.926 32.6162 126.076 32.2662 126.236 31.9262C126.396 31.5662 126.566 31.2762 126.746 31.0562L125.036 31.1462V28.8662H130.376V30.7862C129.756 30.9262 129.236 31.3062 128.816 31.9262C128.416 32.5462 128.056 33.3062 127.736 34.2062L123.986 44.9162C123.426 46.5362 122.896 47.8662 122.396 48.9062C121.896 49.9662 121.336 50.7462 120.716 51.2462C120.096 51.7462 119.326 51.9962 118.406 51.9962ZM132.797 49.4762L131.627 48.6362C131.847 48.3562 132.087 47.9562 132.347 47.4362C132.627 46.9162 132.867 46.3362 133.067 45.6962C133.267 45.0762 133.357 44.4762 133.337 43.8962C133.197 43.9362 133.077 43.9562 132.977 43.9562C132.897 43.9762 132.807 43.9862 132.707 43.9862C132.167 43.9862 131.687 43.8262 131.267 43.5062C130.847 43.1862 130.637 42.6862 130.637 42.0062C130.637 41.4062 130.827 40.8862 131.207 40.4462C131.607 39.9862 132.137 39.7562 132.797 39.7562C133.717 39.7362 134.407 40.0362 134.867 40.6562C135.327 41.2562 135.557 42.0062 135.557 42.9062C135.557 43.5462 135.457 44.2262 135.257 44.9462C135.057 45.6662 134.747 46.4062 134.327 47.1662C133.927 47.9262 133.417 48.6962 132.797 49.4762ZM27.7214 74.3462C25.8214 74.3462 24.2014 74.0262 22.8614 73.3862C21.5414 72.7462 20.4714 71.8962 19.6514 70.8362C18.8314 69.7562 18.2314 68.5662 17.8514 67.2662C17.4714 65.9662 17.2814 64.6662 17.2814 63.3662C17.2814 62.1062 17.4914 60.8362 17.9114 59.5562C18.3514 58.2562 19.0014 57.0662 19.8614 55.9862C20.7414 54.9062 21.8414 54.0362 23.1614 53.3762C24.4814 52.7162 26.0314 52.3862 27.8114 52.3862C29.6314 52.3862 31.2014 52.7162 32.5214 53.3762C33.8414 54.0362 34.9214 54.9162 35.7614 56.0162C36.6014 57.0962 37.2214 58.2762 37.6214 59.5562C38.0414 60.8362 38.2514 62.1062 38.2514 63.3662C38.2514 64.6062 38.0314 65.8662 37.5914 67.1462C37.1714 68.4262 36.5214 69.6162 35.6414 70.7162C34.7814 71.7962 33.6914 72.6762 32.3714 73.3562C31.0514 74.0162 29.5014 74.3462 27.7214 74.3462ZM28.0514 72.1562C29.0914 72.1562 29.9614 71.9062 30.6614 71.4062C31.3614 70.8862 31.9214 70.2162 32.3414 69.3962C32.7614 68.5762 33.0614 67.6862 33.2414 66.7262C33.4214 65.7462 33.5114 64.7962 33.5114 63.8762C33.5114 62.4962 33.3914 61.2362 33.1514 60.0962C32.9114 58.9562 32.5414 57.9762 32.0414 57.1562C31.5414 56.3162 30.9014 55.6762 30.1214 55.2362C29.3614 54.7762 28.4614 54.5562 27.4214 54.5762C26.4014 54.5962 25.5414 54.8762 24.8414 55.4162C24.1414 55.9362 23.5814 56.6162 23.1614 57.4562C22.7414 58.2762 22.4414 59.1762 22.2614 60.1562C22.0814 61.1362 21.9914 62.0862 21.9914 63.0062C21.9914 63.9462 22.0914 64.9462 22.2914 66.0062C22.5114 67.0662 22.8514 68.0662 23.3114 69.0062C23.7714 69.9462 24.3914 70.7062 25.1714 71.2862C25.9514 71.8662 26.9114 72.1562 28.0514 72.1562ZM47.5981 74.3462C46.2581 74.3462 45.0281 74.0462 43.9081 73.4462C42.7881 72.8462 41.8881 71.9762 41.2081 70.8362C40.5481 69.6962 40.2181 68.3162 40.2181 66.6962C40.2181 65.5562 40.4081 64.4862 40.7881 63.4862C41.1681 62.4862 41.6981 61.6062 42.3781 60.8462C43.0781 60.0862 43.8981 59.4862 44.8381 59.0462C45.7981 58.6062 46.8581 58.3862 48.0181 58.3862C49.2981 58.3862 50.3581 58.5862 51.1981 58.9862C52.0581 59.3662 52.6981 59.8762 53.1181 60.5162C53.5581 61.1362 53.7781 61.7962 53.7781 62.4962C53.7781 63.0762 53.5981 63.5962 53.2381 64.0562C52.8981 64.4962 52.4081 64.7262 51.7681 64.7462C51.0081 64.7662 50.4781 64.5562 50.1781 64.1162C49.8781 63.6562 49.7281 63.2162 49.7281 62.7962C49.7281 62.6162 49.7581 62.4062 49.8181 62.1662C49.8781 61.9062 49.9681 61.6762 50.0881 61.4762C49.9481 61.1762 49.7381 60.9562 49.4581 60.8162C49.1781 60.6762 48.8881 60.5862 48.5881 60.5462C48.3081 60.4862 48.0781 60.4662 47.8981 60.4862C46.9381 60.5462 46.1481 61.0262 45.5281 61.9262C44.9081 62.8262 44.5981 64.1262 44.5981 65.8262C44.5981 66.8262 44.7181 67.7662 44.9581 68.6462C45.2181 69.5062 45.6381 70.2162 46.2181 70.7762C46.7981 71.3362 47.5781 71.6362 48.5581 71.6762C49.3981 71.6962 50.2181 71.4962 51.0181 71.0762C51.8181 70.6562 52.4981 70.0862 53.0581 69.3662L54.4381 70.7162C53.7181 71.7162 52.9681 72.4762 52.1881 72.9962C51.4081 73.5162 50.6281 73.8662 49.8481 74.0462C49.0881 74.2462 48.3381 74.3462 47.5981 74.3462ZM61.9854 74.3462C61.3854 74.3462 60.8054 74.2762 60.2454 74.1362C59.6854 73.9962 59.1854 73.7362 58.7454 73.3562C58.3054 72.9562 57.9554 72.3762 57.6954 71.6162C57.4354 70.8562 57.3054 69.8462 57.3054 68.5862L57.3654 61.3562H55.3254V58.8662C55.9454 58.8462 56.5454 58.6362 57.1254 58.2362C57.7054 57.8362 58.1954 57.3162 58.5954 56.6762C59.0154 56.0362 59.2954 55.3662 59.4354 54.6662H61.6554L61.6254 58.8662H65.4354V61.1762L61.6254 61.2662L61.5954 68.6462C61.5954 69.1062 61.6354 69.5662 61.7154 70.0262C61.8154 70.4662 61.9954 70.8362 62.2554 71.1362C62.5154 71.4162 62.8954 71.5562 63.3954 71.5562C63.6754 71.5562 64.0554 71.4562 64.5354 71.2562C65.0354 71.0562 65.5654 70.5562 66.1254 69.7562L67.5654 71.1062C67.0254 71.9062 66.4654 72.5262 65.8854 72.9662C65.3054 73.4062 64.7454 73.7262 64.2054 73.9262C63.6854 74.1262 63.2254 74.2462 62.8254 74.2862C62.4254 74.3262 62.1454 74.3462 61.9854 74.3462ZM75.788 74.3462C74.348 74.3462 73.048 74.0362 71.888 73.4162C70.728 72.7962 69.808 71.9162 69.128 70.7762C68.468 69.6162 68.138 68.2562 68.138 66.6962C68.138 65.0362 68.478 63.5862 69.158 62.3462C69.858 61.0862 70.778 60.1162 71.918 59.4362C73.078 58.7362 74.338 58.3862 75.698 58.3862C77.138 58.3862 78.428 58.6962 79.568 59.3162C80.708 59.9362 81.608 60.8262 82.268 61.9862C82.928 63.1262 83.258 64.4962 83.258 66.0962C83.258 67.7762 82.938 69.2362 82.298 70.4762C81.658 71.7162 80.778 72.6762 79.658 73.3562C78.538 74.0162 77.248 74.3462 75.788 74.3462ZM75.908 72.2162C76.708 72.1962 77.308 71.9162 77.708 71.3762C78.128 70.8362 78.418 70.1562 78.578 69.3362C78.738 68.5162 78.818 67.6862 78.818 66.8462C78.818 66.1062 78.758 65.3562 78.638 64.5962C78.538 63.8362 78.368 63.1462 78.128 62.5262C77.888 61.9062 77.558 61.4062 77.138 61.0262C76.738 60.6462 76.238 60.4662 75.638 60.4862C74.858 60.5062 74.238 60.7862 73.778 61.3262C73.338 61.8662 73.018 62.5462 72.818 63.3662C72.638 64.1662 72.548 65.0062 72.548 65.8862C72.548 66.9062 72.658 67.9062 72.878 68.8862C73.098 69.8662 73.448 70.6762 73.928 71.3162C74.428 71.9362 75.088 72.2362 75.908 72.2162ZM86.0902 56.9162C86.0902 56.5562 86.0902 56.1462 86.0902 55.6862C86.1102 55.2062 86.1402 54.7462 86.1802 54.3062C85.8602 54.3262 85.4802 54.3462 85.0402 54.3662C84.6202 54.3662 84.3002 54.3762 84.0802 54.3962V52.1162C85.0202 52.1162 85.8002 52.0662 86.4202 51.9662C87.0602 51.8662 87.5602 51.7462 87.9202 51.6062C88.3002 51.4662 88.5602 51.3362 88.7002 51.2162H90.3202V60.0062C91.0002 59.4062 91.6902 58.9862 92.3902 58.7462C93.0902 58.5062 93.7502 58.3862 94.3702 58.3862C95.5702 58.3862 96.6202 58.6962 97.5202 59.3162C98.4402 59.9362 99.1502 60.8162 99.6502 61.9562C100.17 63.0962 100.43 64.4362 100.43 65.9762C100.43 67.5762 100.13 69.0162 99.5302 70.2962C98.9502 71.5562 98.1202 72.5462 97.0402 73.2662C95.9602 73.9862 94.6602 74.3462 93.1402 74.3462C92.6002 74.3462 91.9102 74.2262 91.0702 73.9862C90.2502 73.7662 89.4902 73.2862 88.7902 72.5462L87.8902 73.8662H86.0902V56.9162ZM90.3202 69.3662C90.3202 70.0462 90.4302 70.5862 90.6502 70.9862C90.8702 71.3862 91.1502 71.6762 91.4902 71.8562C91.8302 72.0362 92.1702 72.1362 92.5102 72.1562C93.4102 72.1762 94.1102 71.9162 94.6102 71.3762C95.1302 70.8362 95.4902 70.1262 95.6902 69.2462C95.9102 68.3462 96.0202 67.4062 96.0202 66.4262C96.0202 65.5062 95.9102 64.6362 95.6902 63.8162C95.4702 62.9962 95.1202 62.3362 94.6402 61.8362C94.1602 61.3162 93.5302 61.0662 92.7502 61.0862C92.2502 61.1062 91.7902 61.2362 91.3702 61.4762C90.9502 61.6962 90.6002 61.9962 90.3202 62.3762V69.3662ZM109.737 74.3462C108.277 74.3462 106.987 74.0262 105.867 73.3862C104.747 72.7262 103.877 71.8062 103.257 70.6262C102.637 69.4262 102.327 68.0162 102.327 66.3962C102.327 64.9962 102.637 63.6862 103.257 62.4662C103.877 61.2462 104.747 60.2662 105.867 59.5262C107.007 58.7662 108.327 58.3862 109.827 58.3862C110.667 58.3862 111.487 58.5062 112.287 58.7462C113.087 58.9662 113.807 59.3562 114.447 59.9162C115.107 60.4762 115.627 61.2362 116.007 62.1962C116.407 63.1562 116.597 64.3562 116.577 65.7962L106.737 65.9762C106.737 67.0562 106.867 68.0262 107.127 68.8862C107.407 69.7462 107.857 70.4262 108.477 70.9262C109.097 71.4262 109.927 71.6762 110.967 71.6762C111.367 71.6762 111.817 71.6062 112.317 71.4662C112.837 71.3262 113.357 71.0962 113.877 70.7762C114.417 70.4362 114.917 69.9862 115.377 69.4262L116.727 70.6862C116.007 71.7062 115.237 72.4862 114.417 73.0262C113.597 73.5462 112.777 73.8962 111.957 74.0762C111.157 74.2562 110.417 74.3462 109.737 74.3462ZM106.917 63.8762H112.437C112.417 63.0362 112.297 62.3762 112.077 61.8962C111.877 61.3962 111.597 61.0362 111.237 60.8162C110.877 60.5962 110.457 60.4862 109.977 60.4862C109.097 60.4862 108.407 60.8062 107.907 61.4462C107.407 62.0662 107.077 62.8762 106.917 63.8762ZM118.77 71.9162C119.33 71.9162 119.73 71.8062 119.97 71.5862C120.21 71.3662 120.36 71.0562 120.42 70.6562C120.5 70.2362 120.54 69.7662 120.54 69.2462V64.2062C120.54 63.8462 120.55 63.4462 120.57 63.0062C120.59 62.5462 120.62 62.0962 120.66 61.6562C120.34 61.6762 119.96 61.6962 119.52 61.7162C119.1 61.7162 118.78 61.7262 118.56 61.7462V59.4662H119.76C120.54 59.4662 121.25 59.3662 121.89 59.1662C122.55 58.9662 122.98 58.7662 123.18 58.5662H124.65C124.69 58.7662 124.72 59.1462 124.74 59.7062C124.76 60.2462 124.77 60.7262 124.77 61.1462C125.31 60.4862 125.82 59.9562 126.3 59.5562C126.78 59.1562 127.25 58.8662 127.71 58.6862C128.19 58.4862 128.67 58.3862 129.15 58.3862C129.85 58.3862 130.46 58.5862 130.98 58.9862C131.5 59.3662 131.76 59.9962 131.76 60.8762C131.76 61.1762 131.69 61.4962 131.55 61.8362C131.41 62.1562 131.19 62.4262 130.89 62.6462C130.59 62.8662 130.18 62.9762 129.66 62.9762C129.26 62.9762 128.85 62.8562 128.43 62.6162C128.01 62.3762 127.77 61.9162 127.71 61.2362C127.31 61.2362 126.91 61.4062 126.51 61.7462C126.11 62.0662 125.75 62.4562 125.43 62.9162C125.13 63.3562 124.92 63.7662 124.8 64.1462V69.0362C124.8 69.3162 124.79 69.7162 124.77 70.2362C124.75 70.7362 124.72 71.2162 124.68 71.6762C125 71.6362 125.35 71.6162 125.73 71.6162C126.13 71.5962 126.43 71.5862 126.63 71.5862V73.8662H118.77V71.9162ZM147.485 74.3462C146.165 74.3462 145.105 74.1562 144.305 73.7762C143.505 73.3962 142.915 72.9062 142.535 72.3062C142.175 71.7062 141.995 71.0762 141.995 70.4162C141.995 69.8762 142.165 69.3762 142.505 68.9162C142.865 68.4362 143.355 68.1962 143.975 68.1962C144.735 68.1962 145.245 68.4162 145.505 68.8562C145.765 69.2762 145.895 69.6862 145.895 70.0862C145.895 70.2462 145.855 70.4662 145.775 70.7462C145.715 71.0062 145.615 71.2162 145.475 71.3762C145.635 71.6162 145.885 71.8262 146.225 72.0062C146.585 72.1662 147.015 72.2362 147.515 72.2162C148.095 72.1762 148.605 72.0162 149.045 71.7362C149.485 71.4362 149.855 71.0362 150.155 70.5362C150.475 70.0362 150.725 69.4662 150.905 68.8262C151.105 68.1862 151.235 67.5062 151.295 66.7862C151.375 66.0462 151.395 65.2962 151.355 64.5362C151.035 64.9162 150.515 65.2862 149.795 65.6462C149.075 66.0062 148.335 66.2062 147.575 66.2462C146.475 66.2662 145.515 66.1162 144.695 65.7962C143.895 65.4562 143.225 64.9662 142.685 64.3262C142.165 63.6862 141.775 62.9362 141.515 62.0762C141.255 61.2162 141.125 60.2762 141.125 59.2562C141.125 57.9162 141.425 56.7362 142.025 55.7162C142.645 54.6762 143.495 53.8662 144.575 53.2862C145.675 52.6862 146.935 52.3862 148.355 52.3862C149.695 52.3862 150.825 52.6362 151.745 53.1362C152.685 53.6362 153.445 54.3462 154.025 55.2662C154.605 56.1662 155.025 57.2362 155.285 58.4762C155.565 59.7162 155.705 61.0662 155.705 62.5262C155.705 63.4262 155.635 64.4062 155.495 65.4662C155.375 66.5262 155.145 67.5762 154.805 68.6162C154.485 69.6562 154.015 70.6162 153.395 71.4962C152.795 72.3562 152.005 73.0462 151.025 73.5662C150.065 74.0862 148.885 74.3462 147.485 74.3462ZM148.415 63.8462C148.835 63.8462 149.235 63.7562 149.615 63.5762C149.995 63.3962 150.335 63.1562 150.635 62.8562C150.935 62.5562 151.175 62.2262 151.355 61.8662C151.355 60.9062 151.305 59.9862 151.205 59.1062C151.105 58.2262 150.935 57.4362 150.695 56.7362C150.475 56.0362 150.165 55.4862 149.765 55.0862C149.385 54.6862 148.905 54.4862 148.325 54.4862C147.725 54.4862 147.225 54.6862 146.825 55.0862C146.425 55.4662 146.125 55.9662 145.925 56.5862C145.745 57.2062 145.655 57.8662 145.655 58.5662C145.655 59.0062 145.685 59.5262 145.745 60.1262C145.805 60.7262 145.925 61.3162 146.105 61.8962C146.285 62.4562 146.555 62.9262 146.915 63.3062C147.295 63.6662 147.795 63.8462 148.415 63.8462ZM164.29 74.3462C163.69 74.3462 163.11 74.2762 162.55 74.1362C161.99 73.9962 161.49 73.7362 161.05 73.3562C160.61 72.9562 160.26 72.3762 160 71.6162C159.74 70.8562 159.61 69.8462 159.61 68.5862L159.67 61.3562H157.63V58.8662C158.25 58.8462 158.85 58.6362 159.43 58.2362C160.01 57.8362 160.5 57.3162 160.9 56.6762C161.32 56.0362 161.6 55.3662 161.74 54.6662H163.96L163.93 58.8662H167.74V61.1762L163.93 61.2662L163.9 68.6462C163.9 69.1062 163.94 69.5662 164.02 70.0262C164.12 70.4662 164.3 70.8362 164.56 71.1362C164.82 71.4162 165.2 71.5562 165.7 71.5562C165.98 71.5562 166.36 71.4562 166.84 71.2562C167.34 71.0562 167.87 70.5562 168.43 69.7562L169.87 71.1062C169.33 71.9062 168.77 72.5262 168.19 72.9662C167.61 73.4062 167.05 73.7262 166.51 73.9262C165.99 74.1262 165.53 74.2462 165.13 74.2862C164.73 74.3262 164.45 74.3462 164.29 74.3462ZM179.683 71.9162C180.243 71.9162 180.643 71.8062 180.883 71.5862C181.143 71.3662 181.303 71.0562 181.363 70.6562C181.443 70.2362 181.483 69.7662 181.483 69.2462L181.453 64.9862C181.433 63.6862 181.233 62.7262 180.853 62.1062C180.473 61.4662 179.863 61.1462 179.023 61.1462C178.523 61.1462 178.023 61.2562 177.523 61.4762C177.043 61.6962 176.633 61.9562 176.293 62.2562V69.0362C176.293 69.3162 176.283 69.7162 176.263 70.2362C176.243 70.7362 176.213 71.2162 176.173 71.6762C176.513 71.6362 176.873 71.6162 177.253 71.6162C177.633 71.5962 177.923 71.5862 178.123 71.5862V73.8662H170.263V71.9162C170.823 71.9162 171.223 71.8062 171.463 71.5862C171.723 71.3662 171.883 71.0562 171.943 70.6562C172.003 70.2362 172.033 69.7662 172.033 69.2462V56.9162C172.033 56.5562 172.043 56.1462 172.063 55.6862C172.083 55.2062 172.113 54.7462 172.153 54.3062C171.833 54.3262 171.453 54.3462 171.013 54.3662C170.593 54.3662 170.273 54.3762 170.053 54.3962V52.1162C170.993 52.1162 171.773 52.0662 172.393 51.9662C173.033 51.8662 173.533 51.7462 173.893 51.6062C174.273 51.4662 174.533 51.3362 174.673 51.2162H176.293V60.0662C176.693 59.7462 177.153 59.4662 177.673 59.2262C178.193 58.9662 178.723 58.7662 179.263 58.6262C179.803 58.4662 180.273 58.3862 180.673 58.3862C182.513 58.3862 183.813 58.9162 184.573 59.9762C185.353 61.0162 185.743 62.6962 185.743 65.0162V69.0362C185.743 69.3162 185.733 69.7162 185.713 70.2362C185.693 70.7362 185.663 71.2162 185.623 71.6762C185.943 71.6362 186.293 71.6162 186.673 71.6162C187.053 71.5962 187.353 71.5862 187.573 71.5862V73.8662H179.683V71.9162Z" fill="url(#paint0_radial_505_3317)"/>
<circle cx="179.231" cy="99.8662" r="6.5" stroke="#6D81CB"/>
<path d="M178.878 103.22C179.073 103.415 179.39 103.415 179.585 103.22L182.767 100.038C182.962 99.8425 182.962 99.5259 182.767 99.3307C182.572 99.1354 182.255 99.1354 182.06 99.3307L179.231 102.159L176.403 99.3307C176.208 99.1354 175.891 99.1354 175.696 99.3307C175.501 99.5259 175.501 99.8425 175.696 100.038L178.878 103.22ZM178.731 96.8662L178.731 102.866L179.731 102.866L179.731 96.8662L178.731 96.8662Z" fill="#6D81CB"/>
<path d="M16.7474 99.6782C16.7474 98.8622 16.9314 98.1302 17.2994 97.4822C17.6674 96.8262 18.1674 96.3142 18.7994 95.9462C19.4394 95.5782 20.1474 95.3942 20.9234 95.3942C21.8354 95.3942 22.6314 95.6142 23.3114 96.0542C23.9914 96.4942 24.4874 97.1182 24.7994 97.9262H23.4914C23.2594 97.4222 22.9234 97.0342 22.4834 96.7622C22.0514 96.4902 21.5314 96.3542 20.9234 96.3542C20.3394 96.3542 19.8154 96.4902 19.3514 96.7622C18.8874 97.0342 18.5234 97.4222 18.2594 97.9262C17.9954 98.4222 17.8634 99.0062 17.8634 99.6782C17.8634 100.342 17.9954 100.926 18.2594 101.43C18.5234 101.926 18.8874 102.31 19.3514 102.582C19.8154 102.854 20.3394 102.99 20.9234 102.99C21.5314 102.99 22.0514 102.858 22.4834 102.594C22.9234 102.322 23.2594 101.934 23.4914 101.43H24.7994C24.4874 102.23 23.9914 102.85 23.3114 103.29C22.6314 103.722 21.8354 103.938 20.9234 103.938C20.1474 103.938 19.4394 103.758 18.7994 103.398C18.1674 103.03 17.6674 102.522 17.2994 101.874C16.9314 101.226 16.7474 100.494 16.7474 99.6782ZM27.517 94.9862V103.866H26.425V94.9862H27.517ZM29.9421 96.2222C29.7341 96.2222 29.5581 96.1502 29.4141 96.0062C29.2701 95.8622 29.1981 95.6862 29.1981 95.4782C29.1981 95.2702 29.2701 95.0942 29.4141 94.9502C29.5581 94.8062 29.7341 94.7342 29.9421 94.7342C30.1421 94.7342 30.3101 94.8062 30.4461 94.9502C30.5901 95.0942 30.6621 95.2702 30.6621 95.4782C30.6621 95.6862 30.5901 95.8622 30.4461 96.0062C30.3101 96.1502 30.1421 96.2222 29.9421 96.2222ZM30.4701 97.2902V103.866H29.3781V97.2902H30.4701ZM31.9232 100.566C31.9232 99.8862 32.0592 99.2942 32.3312 98.7902C32.6032 98.2782 32.9792 97.8822 33.4592 97.6022C33.9472 97.3222 34.5032 97.1822 35.1272 97.1822C35.9352 97.1822 36.5992 97.3782 37.1192 97.7702C37.6472 98.1622 37.9952 98.7062 38.1632 99.4022H36.9872C36.8752 99.0022 36.6552 98.6862 36.3272 98.4542C36.0072 98.2222 35.6072 98.1062 35.1272 98.1062C34.5032 98.1062 33.9992 98.3222 33.6152 98.7542C33.2312 99.1782 33.0392 99.7822 33.0392 100.566C33.0392 101.358 33.2312 101.97 33.6152 102.402C33.9992 102.834 34.5032 103.05 35.1272 103.05C35.6072 103.05 36.0072 102.938 36.3272 102.714C36.6472 102.49 36.8672 102.17 36.9872 101.754H38.1632C37.9872 102.426 37.6352 102.966 37.1072 103.374C36.5792 103.774 35.9192 103.974 35.1272 103.974C34.5032 103.974 33.9472 103.834 33.4592 103.554C32.9792 103.274 32.6032 102.878 32.3312 102.366C32.0592 101.854 31.9232 101.254 31.9232 100.566ZM43.2923 103.866L40.7123 100.962V103.866H39.6203V94.9862H40.7123V100.206L43.2443 97.2902H44.7683L41.6723 100.566L44.7803 103.866H43.2923ZM50.3273 98.1902V102.066C50.3273 102.386 50.3953 102.614 50.5313 102.75C50.6673 102.878 50.9033 102.942 51.2393 102.942H52.0433V103.866H51.0593C50.4513 103.866 49.9953 103.726 49.6913 103.446C49.3873 103.166 49.2353 102.706 49.2353 102.066V98.1902H48.3833V97.2902H49.2353V95.6342H50.3273V97.2902H52.0433V98.1902H50.3273ZM56.2344 103.974C55.6184 103.974 55.0584 103.834 54.5544 103.554C54.0584 103.274 53.6664 102.878 53.3784 102.366C53.0984 101.846 52.9584 101.246 52.9584 100.566C52.9584 99.8942 53.1024 99.3022 53.3904 98.7902C53.6864 98.2702 54.0864 97.8742 54.5904 97.6022C55.0944 97.3222 55.6584 97.1822 56.2824 97.1822C56.9064 97.1822 57.4704 97.3222 57.9744 97.6022C58.4784 97.8742 58.8744 98.2662 59.1624 98.7782C59.4584 99.2902 59.6064 99.8862 59.6064 100.566C59.6064 101.246 59.4544 101.846 59.1504 102.366C58.8544 102.878 58.4504 103.274 57.9384 103.554C57.4264 103.834 56.8584 103.974 56.2344 103.974ZM56.2344 103.014C56.6264 103.014 56.9944 102.922 57.3384 102.738C57.6824 102.554 57.9584 102.278 58.1664 101.91C58.3824 101.542 58.4904 101.094 58.4904 100.566C58.4904 100.038 58.3864 99.5902 58.1784 99.2222C57.9704 98.8542 57.6984 98.5822 57.3624 98.4062C57.0264 98.2222 56.6624 98.1302 56.2704 98.1302C55.8704 98.1302 55.5024 98.2222 55.1664 98.4062C54.8384 98.5822 54.5744 98.8542 54.3744 99.2222C54.1744 99.5902 54.0744 100.038 54.0744 100.566C54.0744 101.102 54.1704 101.554 54.3624 101.922C54.5624 102.29 54.8264 102.566 55.1544 102.75C55.4824 102.926 55.8424 103.014 56.2344 103.014ZM70.2414 100.326C70.2414 100.534 70.2294 100.754 70.2054 100.986H64.9494C64.9894 101.634 65.2094 102.142 65.6094 102.51C66.0174 102.87 66.5094 103.05 67.0854 103.05C67.5574 103.05 67.9494 102.942 68.2614 102.726C68.5814 102.502 68.8054 102.206 68.9334 101.838H70.1094C69.9334 102.47 69.5814 102.986 69.0534 103.386C68.5254 103.778 67.8694 103.974 67.0854 103.974C66.4614 103.974 65.9014 103.834 65.4054 103.554C64.9174 103.274 64.5334 102.878 64.2534 102.366C63.9734 101.846 63.8334 101.246 63.8334 100.566C63.8334 99.8862 63.9694 99.2902 64.2414 98.7782C64.5134 98.2662 64.8934 97.8742 65.3814 97.6022C65.8774 97.3222 66.4454 97.1822 67.0854 97.1822C67.7094 97.1822 68.2614 97.3182 68.7414 97.5902C69.2214 97.8622 69.5894 98.2382 69.8454 98.7182C70.1094 99.1902 70.2414 99.7262 70.2414 100.326ZM69.1134 100.098C69.1134 99.6822 69.0214 99.3262 68.8374 99.0302C68.6534 98.7262 68.4014 98.4982 68.0814 98.3462C67.7694 98.1862 67.4214 98.1062 67.0374 98.1062C66.4854 98.1062 66.0134 98.2822 65.6214 98.6342C65.2374 98.9862 65.0174 99.4742 64.9614 100.098H69.1134ZM75.1148 103.866L73.5548 101.418L72.0548 103.866H70.9148L73.0388 100.602L70.9148 97.2902H72.1508L73.7108 99.7262L75.1988 97.2902H76.3388L74.2268 100.542L76.3508 103.866H75.1148ZM78.517 98.5022C78.733 98.1262 79.053 97.8142 79.477 97.5662C79.909 97.3102 80.409 97.1822 80.977 97.1822C81.561 97.1822 82.089 97.3222 82.561 97.6022C83.041 97.8822 83.417 98.2782 83.689 98.7902C83.961 99.2942 84.097 99.8822 84.097 100.554C84.097 101.218 83.961 101.81 83.689 102.33C83.417 102.85 83.041 103.254 82.561 103.542C82.089 103.83 81.561 103.974 80.977 103.974C80.417 103.974 79.921 103.85 79.489 103.602C79.065 103.346 78.741 103.03 78.517 102.654V106.986H77.425V97.2902H78.517V98.5022ZM82.981 100.554C82.981 100.058 82.881 99.6262 82.681 99.2582C82.481 98.8902 82.209 98.6102 81.865 98.4182C81.529 98.2262 81.157 98.1302 80.749 98.1302C80.349 98.1302 79.977 98.2302 79.633 98.4302C79.297 98.6222 79.025 98.9062 78.817 99.2822C78.617 99.6502 78.517 100.078 78.517 100.566C78.517 101.062 78.617 101.498 78.817 101.874C79.025 102.242 79.297 102.526 79.633 102.726C79.977 102.918 80.349 103.014 80.749 103.014C81.157 103.014 81.529 102.918 81.865 102.726C82.209 102.526 82.481 102.242 82.681 101.874C82.881 101.498 82.981 101.058 82.981 100.554ZM85.1264 100.554C85.1264 99.8822 85.2624 99.2942 85.5344 98.7902C85.8064 98.2782 86.1784 97.8822 86.6504 97.6022C87.1304 97.3222 87.6624 97.1822 88.2464 97.1822C88.8224 97.1822 89.3224 97.3062 89.7464 97.5542C90.1704 97.8022 90.4864 98.1142 90.6944 98.4902V97.2902H91.7984V103.866H90.6944V102.642C90.4784 103.026 90.1544 103.346 89.7224 103.602C89.2984 103.85 88.8024 103.974 88.2344 103.974C87.6504 103.974 87.1224 103.83 86.6504 103.542C86.1784 103.254 85.8064 102.85 85.5344 102.33C85.2624 101.81 85.1264 101.218 85.1264 100.554ZM90.6944 100.566C90.6944 100.07 90.5944 99.6382 90.3944 99.2702C90.1944 98.9022 89.9224 98.6222 89.5784 98.4302C89.2424 98.2302 88.8704 98.1302 88.4624 98.1302C88.0544 98.1302 87.6824 98.2262 87.3464 98.4182C87.0104 98.6102 86.7424 98.8902 86.5424 99.2582C86.3424 99.6262 86.2424 100.058 86.2424 100.554C86.2424 101.058 86.3424 101.498 86.5424 101.874C86.7424 102.242 87.0104 102.526 87.3464 102.726C87.6824 102.918 88.0544 103.014 88.4624 103.014C88.8704 103.014 89.2424 102.918 89.5784 102.726C89.9224 102.526 90.1944 102.242 90.3944 101.874C90.5944 101.498 90.6944 101.062 90.6944 100.566ZM96.8477 97.1702C97.6477 97.1702 98.2957 97.4142 98.7917 97.9022C99.2877 98.3822 99.5357 99.0782 99.5357 99.9902V103.866H98.4557V100.146C98.4557 99.4902 98.2917 98.9902 97.9637 98.6462C97.6357 98.2942 97.1877 98.1182 96.6197 98.1182C96.0437 98.1182 95.5837 98.2982 95.2397 98.6582C94.9037 99.0182 94.7357 99.5422 94.7357 100.23V103.866H93.6437V97.2902H94.7357V98.2262C94.9517 97.8902 95.2437 97.6302 95.6117 97.4462C95.9877 97.2622 96.3997 97.1702 96.8477 97.1702ZM100.912 100.554C100.912 99.8822 101.048 99.2942 101.32 98.7902C101.592 98.2782 101.964 97.8822 102.436 97.6022C102.916 97.3222 103.452 97.1822 104.044 97.1822C104.556 97.1822 105.032 97.3022 105.472 97.5422C105.912 97.7742 106.248 98.0822 106.48 98.4662V94.9862H107.584V103.866H106.48V102.63C106.264 103.022 105.944 103.346 105.52 103.602C105.096 103.85 104.6 103.974 104.032 103.974C103.448 103.974 102.916 103.83 102.436 103.542C101.964 103.254 101.592 102.85 101.32 102.33C101.048 101.81 100.912 101.218 100.912 100.554ZM106.48 100.566C106.48 100.07 106.38 99.6382 106.18 99.2702C105.98 98.9022 105.708 98.6222 105.364 98.4302C105.028 98.2302 104.656 98.1302 104.248 98.1302C103.84 98.1302 103.468 98.2262 103.132 98.4182C102.796 98.6102 102.528 98.8902 102.328 99.2582C102.128 99.6262 102.028 100.058 102.028 100.554C102.028 101.058 102.128 101.498 102.328 101.874C102.528 102.242 102.796 102.526 103.132 102.726C103.468 102.918 103.84 103.014 104.248 103.014C104.656 103.014 105.028 102.918 105.364 102.726C105.708 102.526 105.98 102.242 106.18 101.874C106.38 101.498 106.48 101.062 106.48 100.566ZM114.956 103.974C114.452 103.974 114 103.89 113.6 103.722C113.2 103.546 112.884 103.306 112.652 103.002C112.42 102.69 112.292 102.334 112.268 101.934H113.396C113.428 102.262 113.58 102.53 113.852 102.738C114.132 102.946 114.496 103.05 114.944 103.05C115.36 103.05 115.688 102.958 115.928 102.774C116.168 102.59 116.288 102.358 116.288 102.078C116.288 101.79 116.16 101.578 115.904 101.442C115.648 101.298 115.252 101.158 114.716 101.022C114.228 100.894 113.828 100.766 113.516 100.638C113.212 100.502 112.948 100.306 112.724 100.05C112.508 99.7862 112.4 99.4422 112.4 99.0182C112.4 98.6822 112.5 98.3742 112.7 98.0942C112.9 97.8142 113.184 97.5942 113.552 97.4342C113.92 97.2662 114.34 97.1822 114.812 97.1822C115.54 97.1822 116.128 97.3662 116.576 97.7342C117.024 98.1022 117.264 98.6062 117.296 99.2462H116.204C116.18 98.9022 116.04 98.6262 115.784 98.4182C115.536 98.2102 115.2 98.1062 114.776 98.1062C114.384 98.1062 114.072 98.1902 113.84 98.3582C113.608 98.5262 113.492 98.7462 113.492 99.0182C113.492 99.2342 113.56 99.4142 113.696 99.5582C113.84 99.6942 114.016 99.8062 114.224 99.8942C114.44 99.9742 114.736 100.066 115.112 100.17C115.584 100.298 115.968 100.426 116.264 100.554C116.56 100.674 116.812 100.858 117.02 101.106C117.236 101.354 117.348 101.678 117.356 102.078C117.356 102.438 117.256 102.762 117.056 103.05C116.856 103.338 116.572 103.566 116.204 103.734C115.844 103.894 115.428 103.974 114.956 103.974ZM118.49 100.566C118.49 99.8862 118.626 99.2942 118.898 98.7902C119.17 98.2782 119.546 97.8822 120.026 97.6022C120.514 97.3222 121.07 97.1822 121.694 97.1822C122.502 97.1822 123.166 97.3782 123.686 97.7702C124.214 98.1622 124.562 98.7062 124.73 99.4022H123.554C123.442 99.0022 123.222 98.6862 122.894 98.4542C122.574 98.2222 122.174 98.1062 121.694 98.1062C121.07 98.1062 120.566 98.3222 120.182 98.7542C119.798 99.1782 119.606 99.7822 119.606 100.566C119.606 101.358 119.798 101.97 120.182 102.402C120.566 102.834 121.07 103.05 121.694 103.05C122.174 103.05 122.574 102.938 122.894 102.714C123.214 102.49 123.434 102.17 123.554 101.754H124.73C124.554 102.426 124.202 102.966 123.674 103.374C123.146 103.774 122.486 103.974 121.694 103.974C121.07 103.974 120.514 103.834 120.026 103.554C119.546 103.274 119.17 102.878 118.898 102.366C118.626 101.854 118.49 101.254 118.49 100.566ZM129.451 97.1702C129.947 97.1702 130.395 97.2782 130.795 97.4942C131.195 97.7022 131.507 98.0182 131.731 98.4422C131.963 98.8662 132.079 99.3822 132.079 99.9902V103.866H130.999V100.146C130.999 99.4902 130.835 98.9902 130.507 98.6462C130.179 98.2942 129.731 98.1182 129.163 98.1182C128.587 98.1182 128.127 98.2982 127.783 98.6582C127.447 99.0182 127.279 99.5422 127.279 100.23V103.866H126.187V94.9862H127.279V98.2262C127.495 97.8902 127.791 97.6302 128.167 97.4462C128.551 97.2622 128.979 97.1702 129.451 97.1702ZM139.862 100.326C139.862 100.534 139.85 100.754 139.826 100.986H134.57C134.61 101.634 134.83 102.142 135.23 102.51C135.638 102.87 136.13 103.05 136.706 103.05C137.178 103.05 137.57 102.942 137.882 102.726C138.202 102.502 138.426 102.206 138.554 101.838H139.73C139.554 102.47 139.202 102.986 138.674 103.386C138.146 103.778 137.49 103.974 136.706 103.974C136.082 103.974 135.522 103.834 135.026 103.554C134.538 103.274 134.154 102.878 133.874 102.366C133.594 101.846 133.454 101.246 133.454 100.566C133.454 99.8862 133.59 99.2902 133.862 98.7782C134.134 98.2662 134.514 97.8742 135.002 97.6022C135.498 97.3222 136.066 97.1822 136.706 97.1822C137.33 97.1822 137.882 97.3182 138.362 97.5902C138.842 97.8622 139.21 98.2382 139.466 98.7182C139.73 99.1902 139.862 99.7262 139.862 100.326ZM138.734 100.098C138.734 99.6822 138.642 99.3262 138.458 99.0302C138.274 98.7262 138.022 98.4982 137.702 98.3462C137.39 98.1862 137.042 98.1062 136.658 98.1062C136.106 98.1062 135.634 98.2822 135.242 98.6342C134.858 98.9862 134.638 99.4742 134.582 100.098H138.734ZM140.896 100.554C140.896 99.8822 141.032 99.2942 141.304 98.7902C141.576 98.2782 141.948 97.8822 142.42 97.6022C142.9 97.3222 143.436 97.1822 144.028 97.1822C144.54 97.1822 145.016 97.3022 145.456 97.5422C145.896 97.7742 146.232 98.0822 146.464 98.4662V94.9862H147.568V103.866H146.464V102.63C146.248 103.022 145.928 103.346 145.504 103.602C145.08 103.85 144.584 103.974 144.016 103.974C143.432 103.974 142.9 103.83 142.42 103.542C141.948 103.254 141.576 102.85 141.304 102.33C141.032 101.81 140.896 101.218 140.896 100.554ZM146.464 100.566C146.464 100.07 146.364 99.6382 146.164 99.2702C145.964 98.9022 145.692 98.6222 145.348 98.4302C145.012 98.2302 144.64 98.1302 144.232 98.1302C143.824 98.1302 143.452 98.2262 143.116 98.4182C142.78 98.6102 142.512 98.8902 142.312 99.2582C142.112 99.6262 142.012 100.058 142.012 100.554C142.012 101.058 142.112 101.498 142.312 101.874C142.512 102.242 142.78 102.526 143.116 102.726C143.452 102.918 143.824 103.014 144.232 103.014C144.64 103.014 145.012 102.918 145.348 102.726C145.692 102.526 145.964 102.242 146.164 101.874C146.364 101.498 146.464 101.062 146.464 100.566ZM155.245 97.2902V103.866H154.153V102.894C153.945 103.23 153.653 103.494 153.277 103.686C152.909 103.87 152.501 103.962 152.053 103.962C151.541 103.962 151.081 103.858 150.673 103.65C150.265 103.434 149.941 103.114 149.701 102.69C149.469 102.266 149.353 101.75 149.353 101.142V97.2902H150.433V100.998C150.433 101.646 150.597 102.146 150.925 102.498C151.253 102.842 151.701 103.014 152.269 103.014C152.853 103.014 153.313 102.834 153.649 102.474C153.985 102.114 154.153 101.59 154.153 100.902V97.2902H155.245ZM158.181 94.9862V103.866H157.089V94.9862H158.181ZM166.042 100.326C166.042 100.534 166.03 100.754 166.006 100.986H160.75C160.79 101.634 161.01 102.142 161.41 102.51C161.818 102.87 162.31 103.05 162.886 103.05C163.358 103.05 163.75 102.942 164.062 102.726C164.382 102.502 164.606 102.206 164.734 101.838H165.91C165.734 102.47 165.382 102.986 164.854 103.386C164.326 103.778 163.67 103.974 162.886 103.974C162.262 103.974 161.702 103.834 161.206 103.554C160.718 103.274 160.334 102.878 160.054 102.366C159.774 101.846 159.634 101.246 159.634 100.566C159.634 99.8862 159.77 99.2902 160.042 98.7782C160.314 98.2662 160.694 97.8742 161.182 97.6022C161.678 97.3222 162.246 97.1822 162.886 97.1822C163.51 97.1822 164.062 97.3182 164.542 97.5902C165.022 97.8622 165.39 98.2382 165.646 98.7182C165.91 99.1902 166.042 99.7262 166.042 100.326ZM164.914 100.098C164.914 99.6822 164.822 99.3262 164.638 99.0302C164.454 98.7262 164.202 98.4982 163.882 98.3462C163.57 98.1862 163.222 98.1062 162.838 98.1062C162.286 98.1062 161.814 98.2822 161.422 98.6342C161.038 98.9862 160.818 99.4742 160.762 100.098H164.914Z" fill="#6D81CB"/>
<defs>
<radialGradient id="paint0_radial_505_3317" cx="0" cy="0" r="1" gradientUnits="userSpaceOnUse" gradientTransform="translate(130.231 48.3662) rotate(90) scale(31.5 114)">
<stop stop-color="#27427A"/>
<stop offset="1" stop-color="#0F2556"/>
</radialGradient>
</defs>
</svg>
